<?xml version="1.0" encoding="UTF-8"?>
<svg id="Layer_1" xmlns="http://www.w3.org/2000/svg" version="1.1" viewBox="0 0 247 93">
  <!-- Generator: Adobe Illustrator 30.0.0, SVG Export Plug-In . SVG Version: 2.1.1 Build 123)  -->
  <defs>
    <style>
      .st0 {
        fill: #425620;
      }
    </style>
  </defs>
  <path class="st0" d="M131.8,18.3c2.39.01,4.68-.94,6.38-2.65,1.7-1.72,2.67-4.05,2.69-6.5,0-1.22-.23-2.42-.69-3.54-.46-1.12-1.13-2.14-1.97-2.99-.85-.85-1.85-1.53-2.95-1.97-1.1-.45-2.28-.67-3.46-.64-4.97,0-9.22,3.91-9.22,9.15s4.24,9.15,9.22,9.15h0Z"/>
  <path class="st0" d="M245.1,76.74c-3.94,5.45-8.78,7.86-14.92,7.86-14.2,0-24.15-13.2-24.15-31.34v-1.65h39.96c0-12.45-8.05-26.1-24.88-26.1-15.22,0-29.86,14.85-29.86,34.64-.05,5.71,1.31,11.35,3.94,16.38-.35.78-.75,1.53-1.2,2.25-3.06,4.31-5.98,6.39-10.35,6.39-6.61,0-9.66-5.25-9.66-12.44V31.79h19.17l.82-4.8h-7.71c-4.48.05-9.44,0-12.2,0l-.08-17.87h-3.07c0,6.98-9.02,17.87-19.91,17.87h-55.27v3.15c5.85,0,8.64.3,8.64,3.45-.09,1.71-.5,3.38-1.2,4.93l-13.03,33.27-14.06-33.74c-.73-2.1-1.17-3.6-1.17-4.65,0-3,2.78-3.3,7.76-3.3v-3.15h-32.64v3.15c6.01,0,6.88,1.23,9.81,7.8l22.59,53.53h5l20.56-52.93c3.01-7.55,4.01-8.39,8.51-8.39,6.37,0,7.82.84,7.82,8.09v41.99c0,7.35-1.46,8.1-8.05,8.1v3.15h31.75v-3.15c-6.58,0-8.05-.75-8.05-8.1V31.6h18.74l-.44,43.33c0,10.65,7.76,18,17.7,18,8.36,0,15.03-4.38,19.72-11.71.41-.64.8-1.3,1.14-1.98l1.42,1.98c2.95,3.71,6.69,6.68,10.92,8.71s8.86,3.05,13.53,3c9.36,0,18.59-4.93,24.29-14.4l-1.9-1.8h0ZM220.67,29.56c7.76,0,11.43,7.65,11.85,18.29h-26.19c1.17-12.01,6.75-18.31,14.34-18.31v.02Z"/>
  <path class="st0" d="M38.93,84.6c-14.2,0-24.15-13.2-24.15-31.34v-1.65h39.95c0-12.45-8.05-26.1-24.88-26.1C14.63,25.51,0,40.36,0,60.16s14.19,32.84,31.46,32.84c9.37,0,18.59-4.93,24.29-14.4l-1.9-1.8c-3.95,5.39-8.78,7.8-14.93,7.8h0ZM29.42,29.54v.02c7.75,0,11.42,7.65,11.85,18.29H15.07c1.17-12.01,6.74-18.31,14.35-18.31h0Z"/>
</svg>